<svg xmlns="http://www.w3.org/2000/svg" viewBox="0 0 32 32">
  <rect width="32" height="32" rx="7" fill="#4f46e5"/>
  <rect x="9" y="7" width="14" height="18" rx="2" fill="white" opacity="0.15"/>
  <rect x="11" y="10" width="8" height="1.5" rx="0.75" fill="white"/>
  <rect x="11" y="13" width="8" height="1.5" rx="0.75" fill="white"/>
  <rect x="11" y="16" width="5" height="1.5" rx="0.75" fill="white"/>
  <path d="M14.5 22.5 C13.5 21.2 13 20 13.3 19.2 C13.5 18.6 14.1 18.3 14.7 18.5 L15.4 18.8 C15.7 18.9 15.9 19.2 15.8 19.5 L15.6 20.2 C15.5 20.5 15.6 20.8 15.9 21 C16.3 21.2 16.7 21.5 17 21.8 C17.3 22.1 17.5 22.5 17.4 22.9 L17.2 23.5 C17.1 23.8 16.8 24 16.4 23.9 L15.7 23.7 C15 23.4 14.8 22.9 14.5 22.5Z" fill="white"/>
</svg>
